HIERARCHY
ROOT newVegas:Hips
{
	OFFSET 0.000000 96.479958 0.000000
	CHANNELS 6 Xposition Yposition Zposition Xrotation Yrotation Zrotation
	JOINT newVegas:Pelvis
	{
		OFFSET 0.000000 0.000000 0.000000
		CHANNELS 3 Xrotation Yrotation Zrotation
		JOINT newVegas:LeftUpLeg
		{
			OFFSET 18.735201 -5.666702 -4.541200
			CHANNELS 3 Xrotation Yrotation Zrotation
			JOINT newVegas:LeftLeg
			{
				OFFSET -0.021200 -31.938179 0.493100
				CHANNELS 3 Xrotation Yrotation Zrotation
				JOINT newVegas:LeftFoot
				{
					OFFSET 0.021200 -31.938179 -4.336299
					CHANNELS 3 Xrotation Yrotation Zrotation
					JOINT newVegas:LeftToeBase
					{
						OFFSET 0.943001 -26.722000 15.023500
						CHANNELS 3 Xrotation Yrotation Zrotation
						End Site
						{
							OFFSET 0.000000 30.670183 0.000000
						}
					}
				}
				JOINT newVegas:Left_PantLeg
				{
					OFFSET 0.663870 -9.044666 -1.108900
					CHANNELS 3 Xrotation Yrotation Zrotation
					End Site
					{
						OFFSET 1.415995 20.635357 0.000000
					}
				}
			}
		}
		JOINT newVegas:RightUpLeg
		{
			OFFSET -18.735201 -5.666702 -4.541200
			CHANNELS 3 Xrotation Yrotation Zrotation
			JOINT newVegas:RightLeg
			{
				OFFSET 0.018946 -31.938133 0.493100
				CHANNELS 3 Xrotation Yrotation Zrotation
				JOINT newVegas:RightFoot
				{
					OFFSET -0.018946 -31.938126 -4.336299
					CHANNELS 3 Xrotation Yrotation Zrotation
					JOINT newVegas:RightToeBase
					{
						OFFSET -0.943001 -26.722004 15.023500
						CHANNELS 3 Xrotation Yrotation Zrotation
						End Site
						{
							OFFSET 0.000000 30.670187 0.000000
						}
					}
				}
				JOINT newVegas:Right_PantLeg
				{
					OFFSET -0.661674 -9.044716 -1.108900
					CHANNELS 3 Xrotation Yrotation Zrotation
					End Site
					{
						OFFSET -1.415958 20.635269 0.000000
					}
				}
			}
		}
	}
	JOINT newVegas:Spine
	{
		OFFSET 0.000000 10.199997 -0.299500
		CHANNELS 3 Xrotation Yrotation Zrotation
		JOINT newVegas:Spine1
		{
			OFFSET 0.000000 11.900002 -1.516600
			CHANNELS 3 Xrotation Yrotation Zrotation
			JOINT newVegas:Spine2
			{
				OFFSET 0.000000 13.600006 -2.842500
				CHANNELS 3 Xrotation Yrotation Zrotation
				JOINT newVegas:Neck
				{
					OFFSET 0.000000 9.624100 -2.890100
					CHANNELS 3 Xrotation Yrotation Zrotation
					JOINT newVegas:Head
					{
						OFFSET 0.000000 14.068802 -1.351900
						CHANNELS 3 Xrotation Yrotation Zrotation
						JOINT newVegas:Hair_Back
						{
							OFFSET 0.000000 3.231903 -17.524799
							CHANNELS 3 Xrotation Yrotation Zrotation
							End Site
							{
								OFFSET 0.000000 19.849884 0.000000
							}
						}
						JOINT newVegas:Hair_Front
						{
							OFFSET 0.000000 31.260406 4.573800
							CHANNELS 3 Xrotation Yrotation Zrotation
							JOINT newVegas:Hair_Front1
							{
								OFFSET 0.000000 2.284103 11.993300
								CHANNELS 3 Xrotation Yrotation Zrotation
								JOINT newVegas:Hair_Front2
								{
									OFFSET 0.000000 2.284103 11.993300
									CHANNELS 3 Xrotation Yrotation Zrotation
									End Site
									{
										OFFSET 0.000000 12.208862 0.000000
									}
								}
							}
						}
						JOINT newVegas:Jowel
						{
							OFFSET 0.000000 -7.458206 6.864100
							CHANNELS 3 Xrotation Yrotation Zrotation
							End Site
							{
								OFFSET 0.000000 19.849884 0.000000
							}
						}
					}
				}
				JOINT newVegas:LeftShoulder
				{
					OFFSET 15.263000 10.923401 -0.547700
					CHANNELS 3 Xrotation Yrotation Zrotation
					JOINT newVegas:LeftArm
					{
						OFFSET 25.438599 -2.830597 -13.032500
						CHANNELS 3 Xrotation Yrotation Zrotation
						JOINT newVegas:LeftForeArm
						{
							OFFSET 29.960503 0.000000 0.000000
							CHANNELS 3 Xrotation Yrotation Zrotation
							JOINT newVegas:LeftHand
							{
								OFFSET 27.849251 0.000000 0.000000
								CHANNELS 3 Xrotation Yrotation Zrotation
								JOINT newVegas:LeftHandThumb1
								{
									OFFSET 4.487587 -3.305161 6.305391
									CHANNELS 3 Xrotation Yrotation Zrotation
									JOINT newVegas:LeftHandThumb2
									{
										OFFSET 5.480453 -3.164139 3.164143
										CHANNELS 3 Xrotation Yrotation Zrotation
										JOINT newVegas:LeftHandThumb3
										{
											OFFSET 5.159721 -2.978973 2.978967
											CHANNELS 3 Xrotation Yrotation Zrotation
											End Site
											{
												OFFSET 2.494507 5.926697 1.738678
											}
										}
									}
								}
								JOINT newVegas:LeftHandIndex1
								{
									OFFSET 18.578728 -0.527832 5.208049
									CHANNELS 3 Xrotation Yrotation Zrotation
									JOINT newVegas:LeftHandIndex2
									{
										OFFSET 3.192009 0.000000 0.000000
										CHANNELS 3 Xrotation Yrotation Zrotation
										JOINT newVegas:LeftHandIndex3
										{
											OFFSET 3.835129 0.000000 0.000000
											CHANNELS 3 Xrotation Yrotation Zrotation
											End Site
											{
												OFFSET -0.034599 3.816971 0.371180
											}
										}
									}
								}
								JOINT newVegas:LeftHandMiddle1
								{
									OFFSET 18.476105 0.000000 0.000000
									CHANNELS 3 Xrotation Yrotation Zrotation
									JOINT newVegas:LeftHandMiddle2
									{
										OFFSET 3.324875 0.000000 0.000000
										CHANNELS 3 Xrotation Yrotation Zrotation
										JOINT newVegas:LeftHandMiddle3
										{
											OFFSET 4.596550 0.000000 0.000000
											CHANNELS 3 Xrotation Yrotation Zrotation
											End Site
											{
												OFFSET 0.057701 4.578827 0.399218
											}
										}
									}
								}
								JOINT newVegas:LeftHandRing1
								{
									OFFSET 17.732719 0.121887 -4.201567
									CHANNELS 3 Xrotation Yrotation Zrotation
									JOINT newVegas:LeftHandRing2
									{
										OFFSET 2.733170 0.000000 0.000000
										CHANNELS 3 Xrotation Yrotation Zrotation
										JOINT newVegas:LeftHandRing3
										{
											OFFSET 3.178268 0.000000 0.000000
											CHANNELS 3 Xrotation Yrotation Zrotation
											End Site
											{
												OFFSET 0.119102 3.170624 0.185394
											}
										}
									}
								}
								JOINT newVegas:LeftHandPinky1
								{
									OFFSET 15.989624 -0.606689 -7.535461
									CHANNELS 3 Xrotation Yrotation Zrotation
									JOINT newVegas:LeftHandPinky2
									{
										OFFSET 2.538986 0.000000 0.000000
										CHANNELS 3 Xrotation Yrotation Zrotation
										JOINT newVegas:LeftHandPinky3
										{
											OFFSET 2.593102 0.000000 0.000000
											CHANNELS 3 Xrotation Yrotation Zrotation
											End Site
											{
												OFFSET -0.150902 2.584198 0.152708
											}
										}
									}
								}
							}
							JOINT newVegas:Left_Sleeve
							{
								OFFSET 0.267448 -0.649796 0.577675
								CHANNELS 3 Xrotation Yrotation Zrotation
								End Site
								{
									OFFSET 0.000000 15.991241 0.000000
								}
							}
							JOINT newVegas:Left_CapeC
							{
								OFFSET 15.715958 -8.608795 -6.935905
								CHANNELS 3 Xrotation Yrotation Zrotation
								JOINT newVegas:Left_CapeC1
								{
									OFFSET 0.000000 -8.688499 0.000000
									CHANNELS 3 Xrotation Yrotation Zrotation
									End Site
									{
										OFFSET 0.000000 8.688499 0.000000
									}
								}
							}
						}
						JOINT newVegas:Left_CapeB
						{
							OFFSET 26.118385 -8.608795 -7.079235
							CHANNELS 3 Xrotation Yrotation Zrotation
							JOINT newVegas:Left_CapeB1
							{
								OFFSET 0.000000 -8.688499 0.000000
								CHANNELS 3 Xrotation Yrotation Zrotation
								End Site
								{
									OFFSET 0.000000 8.688499 0.000000
								}
							}
						}
						JOINT newVegas:Left_CapeA
						{
							OFFSET 5.115639 -8.608795 -10.395809
							CHANNELS 3 Xrotation Yrotation Zrotation
							JOINT newVegas:Left_CapeA1
							{
								OFFSET 0.000000 -8.688499 0.000000
								CHANNELS 3 Xrotation Yrotation Zrotation
								End Site
								{
									OFFSET 0.000000 8.688499 0.000000
								}
							}
						}
					}
				}
				JOINT newVegas:RightShoulder
				{
					OFFSET -15.263000 10.923401 -0.547700
					CHANNELS 3 Xrotation Yrotation Zrotation
					JOINT newVegas:RightArm
					{
						OFFSET -25.438599 -2.830597 -13.032500
						CHANNELS 3 Xrotation Yrotation Zrotation
						JOINT newVegas:RightForeArm
						{
							OFFSET -29.960503 0.000000 0.000000
							CHANNELS 3 Xrotation Yrotation Zrotation
							JOINT newVegas:RightHand
							{
								OFFSET -27.849251 0.000000 0.000000
								CHANNELS 3 Xrotation Yrotation Zrotation
								JOINT newVegas:RightHandThumb1
								{
									OFFSET -4.487587 -3.305161 6.305391
									CHANNELS 3 Xrotation Yrotation Zrotation
									JOINT newVegas:RightHandThumb2
									{
										OFFSET -5.480453 -3.164139 3.164143
										CHANNELS 3 Xrotation Yrotation Zrotation
										JOINT newVegas:RightHandThumb3
										{
											OFFSET -5.159721 -2.978973 2.978967
											CHANNELS 3 Xrotation Yrotation Zrotation
											End Site
											{
												OFFSET -2.494507 5.926697 1.738678
											}
										}
									}
								}
								JOINT newVegas:RightHandIndex1
								{
									OFFSET -18.578728 -0.527832 5.208049
									CHANNELS 3 Xrotation Yrotation Zrotation
									JOINT newVegas:RightHandIndex2
									{
										OFFSET -3.192009 0.000000 0.000000
										CHANNELS 3 Xrotation Yrotation Zrotation
										JOINT newVegas:RightHandIndex3
										{
											OFFSET -3.835129 0.000000 0.000000
											CHANNELS 3 Xrotation Yrotation Zrotation
											End Site
											{
												OFFSET 0.034599 3.816971 0.371180
											}
										}
									}
								}
								JOINT newVegas:RightHandMiddle1
								{
									OFFSET -18.476105 0.000000 0.000000
									CHANNELS 3 Xrotation Yrotation Zrotation
									JOINT newVegas:RightHandMiddle2
									{
										OFFSET -3.324875 0.000000 0.000000
										CHANNELS 3 Xrotation Yrotation Zrotation
										JOINT newVegas:RightHandMiddle3
										{
											OFFSET -4.596550 0.000000 0.000000
											CHANNELS 3 Xrotation Yrotation Zrotation
											End Site
											{
												OFFSET -0.057701 4.578827 0.399218
											}
										}
									}
								}
								JOINT newVegas:RightHandRing1
								{
									OFFSET -17.732719 0.121887 -4.201567
									CHANNELS 3 Xrotation Yrotation Zrotation
									JOINT newVegas:RightHandRing2
									{
										OFFSET -2.733170 0.000000 0.000000
										CHANNELS 3 Xrotation Yrotation Zrotation
										JOINT newVegas:RightHandRing3
										{
											OFFSET -3.178268 0.000000 0.000000
											CHANNELS 3 Xrotation Yrotation Zrotation
											End Site
											{
												OFFSET -0.119102 3.170624 0.185394
											}
										}
									}
								}
								JOINT newVegas:RightHandPinky1
								{
									OFFSET -15.989624 -0.606689 -7.535461
									CHANNELS 3 Xrotation Yrotation Zrotation
									JOINT newVegas:RightHandPinky2
									{
										OFFSET -2.538986 0.000000 0.000000
										CHANNELS 3 Xrotation Yrotation Zrotation
										JOINT newVegas:RightHandPinky3
										{
											OFFSET -2.593102 0.000000 0.000000
											CHANNELS 3 Xrotation Yrotation Zrotation
											End Site
											{
												OFFSET 0.150902 2.584198 0.152708
											}
										}
									}
								}
							}
							JOINT newVegas:Right_CapeC
							{
								OFFSET -15.715958 -8.608795 -6.935905
								CHANNELS 3 Xrotation Yrotation Zrotation
								JOINT newVegas:Right_CapeC1
								{
									OFFSET 0.000000 -8.688499 0.000000
									CHANNELS 3 Xrotation Yrotation Zrotation
									End Site
									{
										OFFSET 0.000000 8.688499 0.000000
									}
								}
							}
							JOINT newVegas:Right_Sleeve
							{
								OFFSET -0.267448 -0.649994 0.577675
								CHANNELS 3 Xrotation Yrotation Zrotation
								End Site
								{
									OFFSET 0.000000 15.991302 0.000000
								}
							}
						}
						JOINT newVegas:Right_CapeA
						{
							OFFSET -5.115540 -8.608795 -10.395824
							CHANNELS 3 Xrotation Yrotation Zrotation
							JOINT newVegas:Right_CapeA1
							{
								OFFSET 0.000000 -8.688499 0.000000
								CHANNELS 3 Xrotation Yrotation Zrotation
								End Site
								{
									OFFSET 0.000000 8.688499 0.000000
								}
							}
						}
						JOINT newVegas:Right_CapeB
						{
							OFFSET -26.118187 -8.608795 -7.079266
							CHANNELS 3 Xrotation Yrotation Zrotation
							JOINT newVegas:Right_CapeB1
							{
								OFFSET 0.000000 -8.688499 0.000000
								CHANNELS 3 Xrotation Yrotation Zrotation
								End Site
								{
									OFFSET 0.000000 8.688499 0.000000
								}
							}
						}
					}
				}
				JOINT newVegas:Left_Collar
				{
					OFFSET 18.625099 8.655502 8.828100
					CHANNELS 3 Xrotation Yrotation Zrotation
					JOINT newVegas:Left_Collar1
					{
						OFFSET 14.783401 10.540405 -1.259500
						CHANNELS 3 Xrotation Yrotation Zrotation
						End Site
						{
							OFFSET 0.000000 18.199875 0.000000
						}
					}
				}
				JOINT newVegas:Collar_Back
				{
					OFFSET 0.000000 15.630707 -20.132601
					CHANNELS 3 Xrotation Yrotation Zrotation
					End Site
					{
						OFFSET 0.000000 22.523010 0.000000
					}
				}
				JOINT newVegas:Left_Peck
				{
					OFFSET 17.239599 -5.132599 25.482599
					CHANNELS 3 Xrotation Yrotation Zrotation
					End Site
					{
						OFFSET 0.000000 22.523010 0.000000
					}
				}
				JOINT newVegas:Right_Peck
				{
					OFFSET -17.239599 -5.132202 25.482599
					CHANNELS 3 Xrotation Yrotation Zrotation
					End Site
					{
						OFFSET 0.000000 22.523010 0.000000
					}
				}
				JOINT newVegas:Right_Collar
				{
					OFFSET -18.625099 8.655792 8.828100
					CHANNELS 3 Xrotation Yrotation Zrotation
					JOINT newVegas:Right_Collar1
					{
						OFFSET -14.783401 10.539993 -1.259500
						CHANNELS 3 Xrotation Yrotation Zrotation
						End Site
						{
							OFFSET 0.000000 18.199631 0.000000
						}
					}
				}
			}
		}
		JOINT newVegas:Belly
		{
			OFFSET 0.000000 -6.540398 9.014299
			CHANNELS 3 Xrotation Yrotation Zrotation
			End Site
			{
				OFFSET 0.000000 11.566666 0.000000
			}
		}
	}
	JOINT newVegas:ElvisFacialAnim_Joint
	{
		OFFSET 1.000000 -95.330101 -8.825800
		CHANNELS 3 Xrotation Yrotation Zrotation
		End Site
		{
			OFFSET 0.000000 35.315800 0.000000
		}
	}
}
MOTION
Frames: 4
Frame Time: 0.016667
-3.817801 62.295578 9.083776 38.669116 -53.573603 30.896675 0.000000 0.000000 0.000001 -83.725231 -16.432284 31.260762 101.679824 -16.667917 0.319713 -34.822080 3.115299 -16.762662 0.000000 0.000000 -0.000000 0.000003 -0.000001 0.000001 -81.235743 3.837623 -37.666280 103.690140 12.626270 1.888697 -38.429568 -4.396519 13.135740 -0.000000 -0.000000 0.000000 0.000000 0.000000 -0.000000 8.242720 -2.138336 -2.643667 3.591992 -3.361492 -2.519244 3.576402 -3.306027 -2.583289 -1.117914 3.395591 -1.431223 -1.117912 3.395605 -1.431225 -0.000002 -0.000002 0.000002 -1.117911 3.395607 -1.431232 -1.117882 3.395563 -1.431226 -0.000001 -0.000003 0.000001 -0.000002 -0.000002 0.000002 5.547265 -8.009826 -6.640975 -64.034253 1.869203 -22.502845 21.515670 -29.366791 16.956532 -2.616361 -8.068149 2.194890 40.109941 -15.297173 -0.360490 5.639818 28.097940 11.338840 -0.000000 0.000001 -0.000001 6.880123 2.821195 -61.138601 8.247995 7.640065 -89.897884 0.000001 -0.000000 -0.000001 -2.344794 4.689009 -62.667887 8.755261 9.896941 -87.054695 -0.000000 -0.000000 -0.000000 -9.042454 10.045648 -60.766192 8.524191 9.508998 -66.902557 -0.000000 0.000001 0.000004 -17.946899 14.754998 -51.485860 8.862271 8.673514 -84.822398 0.000003 0.000000 -0.000001 -0.000001 0.000001 -0.000000 -0.000001 0.000001 -0.000000 -0.000001 0.000000 0.000000 -0.000004 0.000001 -0.000001 -0.000004 -0.000000 -0.000003 -0.000004 0.000001 -0.000001 -0.000004 0.000000 -0.000001 5.583214 9.006404 15.903923 -10.769850 1.892028 48.290834 -18.711331 38.477232 8.552175 6.179202 2.978096 -16.977730 -6.830673 -6.304595 5.093494 1.899673 -22.662926 -8.729815 0.000000 -0.000002 -0.000001 -0.976054 0.915622 -2.034113 0.028889 -0.078688 8.598511 0.000000 0.000000 0.000000 1.418804 -6.781351 2.948461 1.033163 -4.271111 20.381549 0.000000 0.000001 -0.000000 -5.862020 -13.951759 7.701496 1.592903 -4.798638 20.257206 -0.000000 0.000001 0.000000 -5.934312 -14.361605 26.354223 2.930748 -2.669608 12.240945 0.000003 0.000002 -0.000000 0.000002 0.000001 -0.000001 -0.000000 0.000000 0.000000 0.000001 0.000002 0.000002 0.000000 -0.000003 -0.000003 0.000000 -0.000002 -0.000005 0.000000 -0.000003 -0.000003 0.000001 -0.000002 -0.000005 0.000003 -0.000001 0.000001 0.000003 -0.000001 0.000001 0.000003 -0.000001 0.000001 0.000003 -0.000001 0.000001 0.000003 -0.000001 0.000001 0.000003 -0.000001 0.000001 0.000003 -0.000001 0.000001 -0.000002 -0.000001 0.000000 0.000000 0.000000 0.000001 
-3.566465 60.792084 8.704159 39.269691 -53.410864 31.235268 -0.000000 -0.000001 0.000000 -86.069270 -18.495758 31.667090 104.081189 -17.478456 0.214830 -34.727926 3.120616 -17.210161 0.000000 -0.000002 -0.000000 -0.000001 -0.000001 -0.000002 -83.720012 5.032312 -38.200647 106.546006 13.643362 1.930327 -38.672927 -4.319623 12.619320 -0.000000 0.000000 0.000000 0.000002 0.000000 -0.000001 7.957588 -2.062514 -2.533628 3.758339 -3.279238 -2.496425 3.743204 -3.226204 -2.558062 -0.996252 3.466949 -1.517837 -0.996259 3.466967 -1.517844 0.000003 -0.000002 0.000002 -0.996241 3.466963 -1.517837 -0.996239 3.466950 -1.517833 -0.000002 0.000002 -0.000001 0.000003 -0.000002 0.000003 5.745040 -8.108528 -6.895804 -64.657030 0.940671 -22.490081 22.078530 -28.805705 16.993215 -2.188442 -8.346521 1.944083 40.109944 -15.297182 -0.360494 5.639813 28.097940 11.338840 0.000001 -0.000000 -0.000003 6.879332 2.813782 -61.137891 8.247997 7.640062 -89.897878 0.000001 0.000002 -0.000001 -2.346737 4.689011 -62.672805 8.755133 9.896982 -87.054477 -0.000002 -0.000001 -0.000001 -9.042453 10.045648 -60.766192 8.524234 9.509084 -66.906245 0.000003 -0.000001 -0.000001 -17.946896 14.754996 -51.485860 8.862046 8.673805 -84.826667 0.000001 0.000002 -0.000004 -0.000001 -0.000001 -0.000002 -0.000001 -0.000001 -0.000002 -0.000002 -0.000001 -0.000002 -0.000000 -0.000002 0.000002 0.000000 -0.000003 0.000000 -0.000000 -0.000002 0.000002 -0.000002 -0.000003 0.000001 5.819253 9.101603 16.094151 -10.347743 2.384198 47.454443 -19.056448 39.289594 8.937007 5.144268 3.543868 -17.909681 -7.273785 -5.961028 4.974724 1.807450 -22.244874 -8.652304 -0.000000 -0.000000 -0.000000 -0.859993 0.831753 -2.769312 0.027978 -0.078745 7.696506 -0.000001 -0.000001 0.000001 1.401319 -6.841173 1.747786 0.975751 -4.290810 19.317636 0.000000 -0.000002 0.000000 -5.234651 -14.009300 5.961761 1.421473 -4.592392 19.068143 0.000005 0.000002 -0.000002 -6.123056 -14.120941 22.999690 2.904570 -2.693768 11.162827 0.000000 0.000003 0.000001 0.000002 -0.000001 -0.000003 0.000002 -0.000001 -0.000001 0.000002 -0.000001 -0.000002 0.000002 -0.000001 -0.000002 0.000002 0.000000 -0.000003 0.000002 -0.000001 -0.000002 0.000002 -0.000000 -0.000002 -0.000001 0.000001 -0.000002 -0.000001 0.000001 -0.000002 -0.000001 0.000001 -0.000002 -0.000001 0.000001 -0.000002 -0.000001 0.000001 -0.000002 -0.000001 0.000001 -0.000002 -0.000001 0.000001 -0.000002 0.000001 0.000000 0.000001 -0.000000 -0.000001 0.000000 
-3.315886 59.316162 8.350019 39.815830 -53.313711 31.593962 -0.000001 0.000001 -0.000001 -88.280489 -20.507576 32.050632 106.356325 -18.278916 0.109738 -34.566597 3.113124 -17.684089 -0.000000 0.000000 -0.000000 0.000002 -0.000003 0.000003 -86.311898 6.521163 -38.721678 109.279441 14.743307 1.959927 -38.280714 -4.277523 12.264692 -0.000000 0.000000 0.000000 -0.000002 0.000000 -0.000001 7.663173 -1.976574 -2.443579 3.920435 -3.180448 -2.492635 3.905910 -3.129790 -2.551252 -0.877425 3.546154 -1.608293 -0.877440 3.546158 -1.608290 -0.000002 -0.000001 -0.000000 -0.877438 3.546163 -1.608297 -0.877429 3.546143 -1.608299 -0.000000 -0.000002 0.000003 -0.000002 -0.000001 0.000001 5.951876 -8.061980 -6.968057 -65.208560 0.226330 -22.718871 22.758001 -28.220308 17.107339 -1.837103 -8.526895 1.949935 40.109944 -15.297172 -0.360496 5.639820 28.097943 11.338833 0.000000 0.000000 -0.000001 6.878509 2.806601 -61.137180 8.247994 7.640067 -89.897878 -0.000001 -0.000001 0.000001 -2.348135 4.689090 -62.677654 8.755042 9.896929 -87.054306 -0.000003 0.000000 0.000000 -9.042445 10.045647 -60.766192 8.524232 9.509165 -66.909872 0.000001 -0.000001 0.000002 -17.946894 14.754998 -51.485857 8.861890 8.674104 -84.830806 0.000002 -0.000003 -0.000001 -0.000003 -0.000000 0.000000 -0.000003 -0.000000 0.000000 -0.000003 -0.000001 0.000000 -0.000003 0.000000 -0.000000 -0.000003 -0.000001 0.000000 -0.000003 0.000000 -0.000000 -0.000003 -0.000001 -0.000001 6.023418 9.139927 16.277673 -9.808077 2.868990 46.606356 -19.217615 39.891395 9.114132 4.158433 3.984983 -18.528420 -7.704052 -5.623328 4.866729 1.718607 -21.838331 -8.576015 -0.000001 -0.000003 0.000001 -0.751779 0.746888 -3.402898 0.027160 -0.078826 6.886464 -0.000003 0.000002 0.000002 1.379490 -6.896990 0.604312 0.922503 -4.308973 18.305581 -0.000002 -0.000000 -0.000001 -4.598577 -14.115968 4.200491 1.257796 -4.370521 17.870681 0.000005 0.000001 -0.000001 -6.286752 -13.898214 19.326215 2.878211 -2.716626 9.974135 0.000002 -0.000000 -0.000001 0.000002 -0.000000 0.000001 0.000002 -0.000001 0.000002 0.000002 -0.000001 0.000003 0.000004 0.000002 0.000002 0.000004 0.000003 0.000003 0.000004 0.000002 0.000002 0.000004 0.000003 0.000003 0.000002 -0.000001 0.000003 0.000002 -0.000001 0.000003 0.000002 -0.000001 0.000003 0.000002 -0.000001 0.000003 0.000002 -0.000001 0.000003 0.000002 -0.000001 0.000003 0.000002 -0.000001 0.000003 -0.000001 0.000001 -0.000001 -0.000001 0.000001 -0.000001 
-3.060652 57.858330 8.012404 40.359489 -53.247100 31.961279 0.000000 -0.000002 0.000000 -90.459510 -22.553061 32.415210 108.527205 -19.086878 0.003649 -34.301118 3.088092 -18.193322 0.000000 0.000002 0.000000 0.000003 -0.000001 0.000003 -89.067750 8.118143 -38.992710 112.010178 15.541122 1.944502 -37.605017 -4.181548 11.845620 0.000000 0.000000 0.000000 -0.000003 -0.000000 -0.000002 7.364535 -1.881500 -2.356717 4.076465 -3.077121 -2.496174 4.062605 -3.028782 -2.551577 -0.759773 3.629575 -1.696931 -0.759787 3.629571 -1.696916 0.000001 0.000000 -0.000000 -0.759665 3.629568 -1.696931 -0.759861 3.629626 -1.696930 -0.000002 0.000003 -0.000000 0.000001 0.000000 -0.000000 6.122421 -8.035491 -6.996221 -65.715859 -0.382986 -22.932785 23.412077 -27.614434 17.207434 -1.507584 -8.660997 1.990337 40.109948 -15.297173 -0.360492 5.639817 28.097949 11.338834 -0.000003 0.000002 0.000001 6.877770 2.799599 -61.136470 8.247995 7.640065 -89.897878 0.000001 0.000002 -0.000000 -2.348861 4.689082 -62.682374 8.755005 9.896959 -87.054046 -0.000000 0.000001 0.000001 -9.042452 10.045649 -60.766192 8.524228 9.509240 -66.913724 0.000004 -0.000002 0.000003 -17.946894 14.754996 -51.485857 8.861654 8.674400 -84.834945 0.000001 0.000002 0.000001 0.000001 0.000001 0.000004 0.000001 0.000001 0.000004 0.000000 0.000000 0.000004 -0.000000 0.000001 -0.000003 -0.000000 -0.000000 -0.000003 -0.000000 0.000001 -0.000003 -0.000000 0.000000 -0.000004 6.224899 9.159318 16.434210 -9.202608 3.322504 45.736760 -19.298986 40.213879 9.212706 3.214252 4.447924 -18.922691 -8.110751 -5.297902 4.771018 1.635657 -21.450134 -8.501648 0.000000 -0.000002 0.000003 -0.653789 0.663560 -3.905964 0.026727 -0.078761 6.195273 0.000001 0.000002 -0.000004 1.354111 -6.946208 -0.446395 0.875434 -4.325238 17.387387 0.000001 0.000001 0.000005 -3.971848 -14.268004 2.470776 1.106195 -4.136329 16.709332 -0.000000 -0.000001 -0.000003 -6.424697 -13.717929 15.482253 2.853915 -2.736946 8.736599 -0.000004 0.000003 -0.000003 0.000003 -0.000003 0.000002 -0.000001 -0.000001 -0.000001 0.000003 -0.000003 0.000001 0.000001 0.000001 -0.000000 0.000001 0.000002 -0.000001 0.000001 0.000001 -0.000000 0.000001 0.000002 0.000000 0.000000 -0.000001 0.000002 0.000000 -0.000001 0.000002 0.000000 -0.000001 0.000002 0.000000 -0.000001 0.000002 0.000000 -0.000001 0.000002 0.000000 -0.000001 0.000002 0.000000 -0.000001 0.000002 0.000001 0.000001 -0.000000 0.000000 -0.000002 0.000000 
